{
	"patcher" : 	{
		"fileversion" : 1,
		"appversion" : 		{
			"major" : 6,
			"minor" : 1,
			"revision" : 10,
			"architecture" : "x86"
		}
,
		"rect" : [ 136.0, 59.0, 1144.0, 360.0 ],
		"bglocked" : 0,
		"openinpresentation" : 1,
		"default_fontsize" : 10.0,
		"default_fontface" : 0,
		"default_fontname" : "Verdana",
		"gridonopen" : 0,
		"gridsize" : [ 15.0, 15.0 ],
		"gridsnaponopen" : 0,
		"statusbarvisible" : 2,
		"toolbarvisible" : 1,
		"boxanimatetime" : 200,
		"imprint" : 0,
		"enablehscroll" : 1,
		"enablevscroll" : 1,
		"devicewidth" : 0.0,
		"description" : "",
		"digest" : "",
		"tags" : "",
		"boxes" : [ 			{
				"box" : 				{
					"annotation" : "none",
					"fontname" : "Verdana",
					"fontsize" : 10.0,
					"id" : "obj-6",
					"maxclass" : "newobj",
					"numinlets" : 1,
					"numoutlets" : 0,
					"patcher" : 					{
						"fileversion" : 1,
						"appversion" : 						{
							"major" : 6,
							"minor" : 1,
							"revision" : 10,
							"architecture" : "x86"
						}
,
						"rect" : [ 100.0, 100.0, 300.0, 447.0 ],
						"bglocked" : 0,
						"openinpresentation" : 1,
						"default_fontsize" : 12.0,
						"default_fontface" : 0,
						"default_fontname" : "Arial",
						"gridonopen" : 0,
						"gridsize" : [ 15.0, 15.0 ],
						"gridsnaponopen" : 0,
						"statusbarvisible" : 2,
						"toolbarvisible" : 1,
						"boxanimatetime" : 200,
						"imprint" : 0,
						"enablehscroll" : 1,
						"enablevscroll" : 1,
						"devicewidth" : 0.0,
						"description" : "",
						"digest" : "",
						"tags" : "",
						"title" : "/boids3d(view)",
						"boxes" : [ 							{
								"box" : 								{
									"comment" : "",
									"id" : "obj-6",
									"maxclass" : "inlet",
									"numinlets" : 0,
									"numoutlets" : 1,
									"outlettype" : [ "" ],
									"patching_rect" : [ 30.0, 512.0, 25.0, 25.0 ]
								}

							}
, 							{
								"box" : 								{
									"color" : [ 1.0, 0.890196, 0.090196, 1.0 ],
									"fontname" : "Arial",
									"fontsize" : 10.0,
									"hidden" : 1,
									"id" : "obj-20",
									"maxclass" : "newobj",
									"numinlets" : 0,
									"numoutlets" : 1,
									"outlettype" : [ "" ],
									"patcher" : 									{
										"fileversion" : 1,
										"appversion" : 										{
											"major" : 6,
											"minor" : 1,
											"revision" : 10,
											"architecture" : "x86"
										}
,
										"rect" : [ 33.0, 52.0, 1161.0, 189.0 ],
										"bglocked" : 0,
										"openinpresentation" : 0,
										"default_fontsize" : 10.0,
										"default_fontface" : 0,
										"default_fontname" : "Arial",
										"gridonopen" : 0,
										"gridsize" : [ 15.0, 15.0 ],
										"gridsnaponopen" : 0,
										"statusbarvisible" : 2,
										"toolbarvisible" : 1,
										"boxanimatetime" : 200,
										"imprint" : 0,
										"enablehscroll" : 1,
										"enablevscroll" : 1,
										"devicewidth" : 0.0,
										"description" : "",
										"digest" : "",
										"tags" : "",
										"boxes" : [ 											{
												"box" : 												{
													"color" : [ 1.0, 0.611765, 0.611765, 1.0 ],
													"fontname" : "Arial",
													"fontsize" : 11.595187,
													"id" : "obj-3",
													"maxclass" : "newobj",
													"numinlets" : 1,
													"numoutlets" : 1,
													"outlettype" : [ "bang" ],
													"patching_rect" : [ 315.0, 9.0, 56.0, 20.0 ],
													"text" : "loadbang"
												}

											}
, 											{
												"box" : 												{
													"fontname" : "Arial",
													"fontsize" : 11.595187,
													"id" : "obj-4",
													"linecount" : 3,
													"maxclass" : "message",
													"numinlets" : 2,
													"numoutlets" : 1,
													"outlettype" : [ "" ],
													"patching_rect" : [ 301.0, 56.0, 581.0, 44.0 ],
													"text" : "font Verdana 9, frgb 1 1 1 255, moveto 16 85, write le, moveto 110 85, write right, textface italic, moveto 65 40, write top, textface normal, moveto 50 80, write front, frgb 1 1 1 100, moveto 25 85, write ft, moveto 70 70, write back, moveto 60 112, textface italic, write bottom, closesprite background, drawsprite background 0 0"
												}

											}
, 											{
												"box" : 												{
													"fontname" : "Arial",
													"fontsize" : 11.595187,
													"id" : "obj-5",
													"linecount" : 3,
													"maxclass" : "message",
													"numinlets" : 2,
													"numoutlets" : 1,
													"outlettype" : [ "" ],
													"patching_rect" : [ 919.0, 53.0, 436.0, 44.0 ],
													"text" : "clear, recordsprite, brgb 255 255 255, frgb 14 121 153 150, paintrect 25 50 100 125, frgb 14 121 153 128, paintpoly 50 25 125 25 100 50 25 50, paintpoly 100 50 125 25 125 100 100 125, paintrect 50 25 125 100,"
												}

											}
, 											{
												"box" : 												{
													"comment" : "",
													"id" : "obj-6",
													"maxclass" : "outlet",
													"numinlets" : 1,
													"numoutlets" : 0,
													"patching_rect" : [ 315.0, 145.0, 25.0, 25.0 ]
												}

											}
 ],
										"lines" : [ 											{
												"patchline" : 												{
													"destination" : [ "obj-4", 0 ],
													"disabled" : 0,
													"hidden" : 0,
													"source" : [ "obj-3", 0 ]
												}

											}
, 											{
												"patchline" : 												{
													"destination" : [ "obj-5", 0 ],
													"disabled" : 0,
													"hidden" : 0,
													"midpoints" : [ 324.5, 36.0, 928.5, 36.0 ],
													"source" : [ "obj-3", 0 ]
												}

											}
, 											{
												"patchline" : 												{
													"destination" : [ "obj-6", 0 ],
													"disabled" : 0,
													"hidden" : 0,
													"source" : [ "obj-4", 0 ]
												}

											}
, 											{
												"patchline" : 												{
													"destination" : [ "obj-6", 0 ],
													"disabled" : 0,
													"hidden" : 0,
													"midpoints" : [ 928.5, 113.0, 324.5, 113.0 ],
													"source" : [ "obj-5", 0 ]
												}

											}
 ]
									}
,
									"patching_rect" : [ 231.983444, 254.0, 30.0, 18.0 ],
									"saved_object_attributes" : 									{
										"default_fontface" : 0,
										"default_fontname" : "Arial",
										"default_fontsize" : 10.0,
										"description" : "",
										"digest" : "",
										"fontface" : 0,
										"fontname" : "Arial",
										"fontsize" : 10.0,
										"globalpatchername" : "",
										"tags" : ""
									}
,
									"text" : "p init"
								}

							}
, 							{
								"box" : 								{
									"annotation" : "minimum speed of speed range",
									"fontname" : "Verdana",
									"fontsize" : 10.0,
									"id" : "obj-1",
									"maxclass" : "flonum",
									"minimum" : 0.0,
									"numinlets" : 1,
									"numoutlets" : 2,
									"outlettype" : [ "float", "bang" ],
									"parameter_enable" : 0,
									"patching_rect" : [ 454.0, 108.0, 30.0, 19.0 ],
									"presentation" : 1,
									"presentation_rect" : [ 8.0, 59.0, 30.0, 19.0 ],
									"triangle" : 0,
									"triscale" : 0.9,
									"varname" : "Minspeed"
								}

							}
, 							{
								"box" : 								{
									"annotation" : "willingness to change speed and direction",
									"fontname" : "Verdana",
									"fontsize" : 10.0,
									"id" : "obj-10",
									"maxclass" : "flonum",
									"minimum" : 0.0,
									"numinlets" : 1,
									"numoutlets" : 2,
									"outlettype" : [ "float", "bang" ],
									"parameter_enable" : 0,
									"patching_rect" : [ 454.0, 406.0, 30.0, 19.0 ],
									"presentation" : 1,
									"presentation_rect" : [ 8.0, 249.0, 30.0, 19.0 ],
									"triangle" : 0,
									"triscale" : 0.9,
									"varname" : "Inertia"
								}

							}
, 							{
								"box" : 								{
									"annotation" : "overall speed",
									"fontname" : "Verdana",
									"fontsize" : 10.0,
									"id" : "obj-11",
									"maxclass" : "flonum",
									"minimum" : 0.0,
									"numinlets" : 1,
									"numoutlets" : 2,
									"outlettype" : [ "float", "bang" ],
									"parameter_enable" : 0,
									"patching_rect" : [ 454.0, 371.0, 30.0, 19.0 ],
									"presentation" : 1,
									"presentation_rect" : [ 8.0, 229.0, 30.0, 19.0 ],
									"triangle" : 0,
									"triscale" : 0.9,
									"varname" : "Speed"
								}

							}
, 							{
								"box" : 								{
									"annotation" : "distance of vision for avoiding wall edges",
									"fontname" : "Verdana",
									"fontsize" : 10.0,
									"id" : "obj-12",
									"maxclass" : "flonum",
									"minimum" : 0.0,
									"numinlets" : 1,
									"numoutlets" : 2,
									"outlettype" : [ "float", "bang" ],
									"parameter_enable" : 0,
									"patching_rect" : [ 454.0, 322.0, 30.0, 19.0 ],
									"presentation" : 1,
									"presentation_rect" : [ 8.0, 207.0, 30.0, 19.0 ],
									"triangle" : 0,
									"triscale" : 0.9,
									"varname" : "Edgedist"
								}

							}
, 							{
								"box" : 								{
									"annotation" : "strengh of wall avoidance instinct",
									"fontname" : "Verdana",
									"fontsize" : 10.0,
									"id" : "obj-13",
									"maxclass" : "flonum",
									"minimum" : 0.0,
									"numinlets" : 1,
									"numoutlets" : 2,
									"outlettype" : [ "float", "bang" ],
									"parameter_enable" : 0,
									"patching_rect" : [ 454.0, 281.0, 30.0, 19.0 ],
									"presentation" : 1,
									"presentation_rect" : [ 8.0, 187.0, 30.0, 19.0 ],
									"triangle" : 0,
									"triscale" : 0.9,
									"varname" : "Repel"
								}

							}
, 							{
								"box" : 								{
									"annotation" : "strength of neighbor avoidance instinct",
									"fontname" : "Verdana",
									"fontsize" : 10.0,
									"id" : "obj-14",
									"maxclass" : "flonum",
									"minimum" : 0.0,
									"numinlets" : 1,
									"numoutlets" : 2,
									"outlettype" : [ "float", "bang" ],
									"parameter_enable" : 0,
									"patching_rect" : [ 454.0, 242.0, 30.0, 19.0 ],
									"presentation" : 1,
									"presentation_rect" : [ 8.0, 166.0, 30.0, 19.0 ],
									"triangle" : 0,
									"triscale" : 0.9,
									"varname" : "Avoid"
								}

							}
, 							{
								"box" : 								{
									"annotation" : "strength of neighbor speed matching instinct",
									"fontname" : "Verdana",
									"fontsize" : 10.0,
									"id" : "obj-15",
									"maxclass" : "flonum",
									"minimum" : 0.0,
									"numinlets" : 1,
									"numoutlets" : 2,
									"outlettype" : [ "float", "bang" ],
									"parameter_enable" : 0,
									"patching_rect" : [ 454.0, 210.0, 30.0, 19.0 ],
									"presentation" : 1,
									"presentation_rect" : [ 8.0, 143.0, 30.0, 19.0 ],
									"triangle" : 0,
									"triscale" : 0.9,
									"varname" : "Match"
								}

							}
, 							{
								"box" : 								{
									"annotation" : "strength of attraction to 'attractpoint'",
									"fontname" : "Verdana",
									"fontsize" : 10.0,
									"id" : "obj-16",
									"maxclass" : "flonum",
									"minimum" : 0.0,
									"numinlets" : 1,
									"numoutlets" : 2,
									"outlettype" : [ "float", "bang" ],
									"parameter_enable" : 0,
									"patching_rect" : [ 454.0, 176.0, 30.0, 19.0 ],
									"presentation" : 1,
									"presentation_rect" : [ 8.0, 122.0, 30.0, 19.0 ],
									"triangle" : 0,
									"triscale" : 0.9,
									"varname" : "Attract"
								}

							}
, 							{
								"box" : 								{
									"annotation" : "number of neighbors each boid consults when flocking",
									"fontname" : "Verdana",
									"fontsize" : 10.0,
									"id" : "obj-17",
									"maxclass" : "flonum",
									"minimum" : 0.0,
									"numinlets" : 1,
									"numoutlets" : 2,
									"outlettype" : [ "float", "bang" ],
									"parameter_enable" : 0,
									"patching_rect" : [ 454.0, 43.0, 30.0, 19.0 ],
									"presentation" : 1,
									"presentation_rect" : [ 8.0, 38.0, 30.0, 19.0 ],
									"triangle" : 0,
									"triscale" : 0.9,
									"varname" : "Neighbors"
								}

							}
, 							{
								"box" : 								{
									"annotation" : "strength of centering instinct",
									"fontname" : "Verdana",
									"fontsize" : 10.0,
									"id" : "obj-18",
									"maxclass" : "flonum",
									"minimum" : 0.0,
									"numinlets" : 1,
									"numoutlets" : 2,
									"outlettype" : [ "float", "bang" ],
									"parameter_enable" : 0,
									"patching_rect" : [ 454.0, 141.0, 30.0, 19.0 ],
									"presentation" : 1,
									"presentation_rect" : [ 8.0, 101.0, 30.0, 19.0 ],
									"triangle" : 0,
									"triscale" : 0.9,
									"varname" : "Center"
								}

							}
, 							{
								"box" : 								{
									"annotation" : "maximum speed of speed range",
									"fontname" : "Verdana",
									"fontsize" : 10.0,
									"id" : "obj-2",
									"maxclass" : "flonum",
									"minimum" : 0.0,
									"numinlets" : 1,
									"numoutlets" : 2,
									"outlettype" : [ "float", "bang" ],
									"parameter_enable" : 0,
									"patching_rect" : [ 454.0, 76.0, 30.0, 19.0 ],
									"presentation" : 1,
									"presentation_rect" : [ 8.0, 80.0, 30.0, 19.0 ],
									"triangle" : 0,
									"triscale" : 0.9,
									"varname" : "Maxspeed"
								}

							}
, 							{
								"box" : 								{
									"fontname" : "Verdana",
									"fontsize" : 10.0,
									"id" : "obj-22",
									"maxclass" : "flonum",
									"numinlets" : 1,
									"numoutlets" : 2,
									"outlettype" : [ "float", "bang" ],
									"parameter_enable" : 0,
									"patching_rect" : [ 610.0, 553.0, 31.0, 19.0 ],
									"presentation" : 1,
									"presentation_rect" : [ 238.0, 392.090912, 31.0, 19.0 ],
									"triangle" : 0,
									"triscale" : 0.9,
									"varname" : "bb6"
								}

							}
, 							{
								"box" : 								{
									"fontname" : "Verdana",
									"fontsize" : 10.0,
									"id" : "obj-23",
									"maxclass" : "flonum",
									"numinlets" : 1,
									"numoutlets" : 2,
									"outlettype" : [ "float", "bang" ],
									"parameter_enable" : 0,
									"patching_rect" : [ 576.0, 553.0, 31.0, 19.0 ],
									"presentation" : 1,
									"presentation_rect" : [ 187.090897, 423.636383, 31.0, 19.0 ],
									"triangle" : 0,
									"triscale" : 0.9,
									"varname" : "bb5"
								}

							}
, 							{
								"box" : 								{
									"fontname" : "Verdana",
									"fontsize" : 10.0,
									"id" : "obj-24",
									"maxclass" : "flonum",
									"numinlets" : 1,
									"numoutlets" : 2,
									"outlettype" : [ "float", "bang" ],
									"parameter_enable" : 0,
									"patching_rect" : [ 542.0, 553.0, 31.0, 19.0 ],
									"presentation" : 1,
									"presentation_rect" : [ 124.363647, 415.363617, 31.0, 19.0 ],
									"triangle" : 0,
									"triscale" : 0.9,
									"varname" : "bb4"
								}

							}
, 							{
								"box" : 								{
									"fontname" : "Verdana",
									"fontsize" : 10.0,
									"id" : "obj-25",
									"maxclass" : "flonum",
									"numinlets" : 1,
									"numoutlets" : 2,
									"outlettype" : [ "float", "bang" ],
									"parameter_enable" : 0,
									"patching_rect" : [ 508.0, 553.0, 31.0, 19.0 ],
									"presentation" : 1,
									"presentation_rect" : [ 162.545441, 383.454559, 31.0, 19.0 ],
									"triangle" : 0,
									"triscale" : 0.9,
									"varname" : "bb3"
								}

							}
, 							{
								"box" : 								{
									"fontname" : "Verdana",
									"fontsize" : 10.0,
									"id" : "obj-26",
									"maxclass" : "flonum",
									"numinlets" : 1,
									"numoutlets" : 2,
									"outlettype" : [ "float", "bang" ],
									"parameter_enable" : 0,
									"patching_rect" : [ 475.0, 553.0, 31.0, 19.0 ],
									"presentation" : 1,
									"presentation_rect" : [ 112.545441, 337.909088, 31.0, 19.0 ],
									"triangle" : 0,
									"triscale" : 0.9,
									"varname" : "bb2"
								}

							}
, 							{
								"box" : 								{
									"fontname" : "Verdana",
									"fontsize" : 10.0,
									"frgb" : 0.0,
									"id" : "obj-3",
									"maxclass" : "comment",
									"numinlets" : 1,
									"numoutlets" : 0,
									"patching_rect" : [ 47.0, 378.0, 32.0, 19.0 ],
									"presentation" : 1,
									"presentation_rect" : [ 269.0, 392.090912, 32.0, 19.0 ],
									"text" : "back"
								}

							}
, 							{
								"box" : 								{
									"fontname" : "Verdana",
									"fontsize" : 9.0,
									"hidden" : 1,
									"id" : "obj-30",
									"maxclass" : "newobj",
									"numinlets" : 11,
									"numoutlets" : 11,
									"outlettype" : [ "", "", "", "", "", "", "", "", "", "", "" ],
									"patching_rect" : [ 444.0, 597.0, 144.0, 17.0 ],
									"text" : "jcom.list2parameter 6"
								}

							}
, 							{
								"box" : 								{
									"fontname" : "Verdana",
									"fontsize" : 9.0,
									"hidden" : 1,
									"id" : "obj-31",
									"maxclass" : "newobj",
									"numinlets" : 1,
									"numoutlets" : 4,
									"outlettype" : [ "", "", "", "" ],
									"patching_rect" : [ 594.0, 597.0, 81.0, 17.0 ],
									"text" : "j.remote flyrect",
									"varname" : "flyrect"
								}

							}
, 							{
								"box" : 								{
									"fontname" : "Verdana",
									"fontsize" : 10.0,
									"id" : "obj-32",
									"maxclass" : "flonum",
									"numinlets" : 1,
									"numoutlets" : 2,
									"outlettype" : [ "float", "bang" ],
									"parameter_enable" : 0,
									"patching_rect" : [ 439.0, 553.0, 31.0, 19.0 ],
									"presentation" : 1,
									"presentation_rect" : [ 11.63636, 383.363647, 31.0, 19.0 ],
									"triangle" : 0,
									"triscale" : 0.9,
									"varname" : "bb1"
								}

							}
, 							{
								"box" : 								{
									"fontname" : "Verdana",
									"fontsize" : 10.0,
									"frgb" : 0.0,
									"id" : "obj-33",
									"maxclass" : "comment",
									"numinlets" : 1,
									"numoutlets" : 0,
									"patching_rect" : [ 88.090897, 284.454529, 162.909088, 19.0 ],
									"presentation" : 1,
									"presentation_rect" : [ 82.818184, 313.181824, 161.636368, 19.0 ],
									"text" : "bounding box in which to fly",
									"underline" : 1
								}

							}
, 							{
								"box" : 								{
									"fontname" : "Verdana",
									"fontsize" : 9.0,
									"id" : "obj-35",
									"maxclass" : "newobj",
									"numinlets" : 1,
									"numoutlets" : 4,
									"outlettype" : [ "", "", "", "" ],
									"patching_rect" : [ 494.0, 471.0, 87.0, 17.0 ],
									"text" : "j.remote prefdist",
									"varname" : "prefdist"
								}

							}
, 							{
								"box" : 								{
									"fontname" : "Verdana",
									"fontsize" : 9.0,
									"id" : "obj-37",
									"maxclass" : "newobj",
									"numinlets" : 1,
									"numoutlets" : 4,
									"outlettype" : [ "", "", "", "" ],
									"patching_rect" : [ 487.0, 434.0, 107.0, 17.0 ],
									"text" : "j.remote acceleration",
									"varname" : "acceleration"
								}

							}
, 							{
								"box" : 								{
									"fontname" : "Verdana",
									"fontsize" : 9.0,
									"id" : "obj-39",
									"maxclass" : "newobj",
									"numinlets" : 1,
									"numoutlets" : 4,
									"outlettype" : [ "", "", "", "" ],
									"patching_rect" : [ 490.0, 402.0, 81.0, 17.0 ],
									"text" : "j.remote inertia",
									"varname" : "inertia"
								}

							}
, 							{
								"box" : 								{
									"fontname" : "Verdana",
									"fontsize" : 10.0,
									"frgb" : 0.0,
									"id" : "obj-4",
									"maxclass" : "comment",
									"numinlets" : 1,
									"numoutlets" : 0,
									"patching_rect" : [ 47.0, 360.0, 36.0, 19.0 ],
									"presentation" : 1,
									"presentation_rect" : [ 218.090897, 423.636383, 36.0, 19.0 ],
									"text" : "front"
								}

							}
, 							{
								"box" : 								{
									"fontname" : "Verdana",
									"fontsize" : 9.0,
									"id" : "obj-41",
									"maxclass" : "newobj",
									"numinlets" : 1,
									"numoutlets" : 4,
									"outlettype" : [ "", "", "", "" ],
									"patching_rect" : [ 490.0, 364.0, 79.0, 17.0 ],
									"text" : "j.remote speed",
									"varname" : "speed"
								}

							}
, 							{
								"box" : 								{
									"fontname" : "Verdana",
									"fontsize" : 9.0,
									"id" : "obj-43",
									"maxclass" : "newobj",
									"numinlets" : 1,
									"numoutlets" : 4,
									"outlettype" : [ "", "", "", "" ],
									"patching_rect" : [ 490.0, 320.0, 91.0, 17.0 ],
									"text" : "j.remote edgedist",
									"varname" : "edgedist"
								}

							}
, 							{
								"box" : 								{
									"fontname" : "Verdana",
									"fontsize" : 9.0,
									"id" : "obj-45",
									"maxclass" : "newobj",
									"numinlets" : 1,
									"numoutlets" : 4,
									"outlettype" : [ "", "", "", "" ],
									"patching_rect" : [ 490.0, 276.0, 75.0, 17.0 ],
									"text" : "j.remote repel",
									"varname" : "repel"
								}

							}
, 							{
								"box" : 								{
									"fontname" : "Verdana",
									"fontsize" : 9.0,
									"id" : "obj-47",
									"maxclass" : "newobj",
									"numinlets" : 1,
									"numoutlets" : 4,
									"outlettype" : [ "", "", "", "" ],
									"patching_rect" : [ 490.0, 241.0, 76.0, 17.0 ],
									"text" : "j.remote avoid",
									"varname" : "avoid"
								}

							}
, 							{
								"box" : 								{
									"fontname" : "Verdana",
									"fontsize" : 10.0,
									"frgb" : 0.0,
									"id" : "obj-48",
									"maxclass" : "comment",
									"numinlets" : 1,
									"numoutlets" : 0,
									"patching_rect" : [ 47.0, 124.0, 189.0, 19.0 ],
									"presentation" : 1,
									"presentation_rect" : [ 39.0, 122.0, 189.0, 19.0 ],
									"text" : "strength of attraction to 'attractpt'"
								}

							}
, 							{
								"box" : 								{
									"fontname" : "Verdana",
									"fontsize" : 10.0,
									"frgb" : 0.0,
									"id" : "obj-49",
									"maxclass" : "comment",
									"numinlets" : 1,
									"numoutlets" : 0,
									"patching_rect" : [ 47.0, 106.0, 157.0, 19.0 ],
									"presentation" : 1,
									"presentation_rect" : [ 39.0, 101.0, 157.0, 19.0 ],
									"text" : "strength of centering instinct"
								}

							}
, 							{
								"box" : 								{
									"fontname" : "Verdana",
									"fontsize" : 10.0,
									"frgb" : 0.0,
									"id" : "obj-50",
									"maxclass" : "comment",
									"numinlets" : 1,
									"numoutlets" : 0,
									"patching_rect" : [ 47.0, 87.0, 170.0, 19.0 ],
									"presentation" : 1,
									"presentation_rect" : [ 39.0, 80.0, 170.0, 19.0 ],
									"text" : "maximum speed of speed range"
								}

							}
, 							{
								"box" : 								{
									"fontname" : "Verdana",
									"fontsize" : 10.0,
									"frgb" : 0.0,
									"id" : "obj-51",
									"maxclass" : "comment",
									"numinlets" : 1,
									"numoutlets" : 0,
									"patching_rect" : [ 49.0, 70.0, 167.0, 19.0 ],
									"presentation" : 1,
									"presentation_rect" : [ 39.0, 59.0, 167.0, 19.0 ],
									"text" : "minimum speed of speed range"
								}

							}
, 							{
								"box" : 								{
									"fontname" : "Verdana",
									"fontsize" : 10.0,
									"frgb" : 0.0,
									"id" : "obj-52",
									"maxclass" : "comment",
									"numinlets" : 1,
									"numoutlets" : 0,
									"patching_rect" : [ 47.0, 52.0, 282.0, 19.0 ],
									"presentation" : 1,
									"presentation_rect" : [ 39.0, 38.0, 282.0, 19.0 ],
									"text" : "number of neighbors each boid consults when flocking"
								}

							}
, 							{
								"box" : 								{
									"fontname" : "Verdana",
									"fontsize" : 9.0,
									"id" : "obj-54",
									"maxclass" : "newobj",
									"numinlets" : 1,
									"numoutlets" : 4,
									"outlettype" : [ "", "", "", "" ],
									"patching_rect" : [ 490.0, 203.0, 80.0, 17.0 ],
									"text" : "j.remote match",
									"varname" : "match"
								}

							}
, 							{
								"box" : 								{
									"fontname" : "Verdana",
									"fontsize" : 9.0,
									"id" : "obj-56",
									"maxclass" : "newobj",
									"numinlets" : 1,
									"numoutlets" : 4,
									"outlettype" : [ "", "", "", "" ],
									"patching_rect" : [ 490.0, 171.0, 82.0, 17.0 ],
									"text" : "j.remote attract",
									"varname" : "attract"
								}

							}
, 							{
								"box" : 								{
									"fontname" : "Verdana",
									"fontsize" : 9.0,
									"id" : "obj-58",
									"maxclass" : "newobj",
									"numinlets" : 1,
									"numoutlets" : 4,
									"outlettype" : [ "", "", "", "" ],
									"patching_rect" : [ 490.0, 138.0, 81.0, 17.0 ],
									"text" : "j.remote center",
									"varname" : "center"
								}

							}
, 							{
								"box" : 								{
									"fontname" : "Verdana",
									"fontsize" : 9.0,
									"id" : "obj-60",
									"maxclass" : "newobj",
									"numinlets" : 1,
									"numoutlets" : 4,
									"outlettype" : [ "", "", "", "" ],
									"patching_rect" : [ 490.0, 101.0, 96.0, 17.0 ],
									"text" : "j.remote minspeed",
									"varname" : "minspeed"
								}

							}
, 							{
								"box" : 								{
									"fontname" : "Verdana",
									"fontsize" : 9.0,
									"id" : "obj-62",
									"maxclass" : "newobj",
									"numinlets" : 1,
									"numoutlets" : 4,
									"outlettype" : [ "", "", "", "" ],
									"patching_rect" : [ 490.0, 71.0, 98.0, 17.0 ],
									"text" : "j.remote maxspeed",
									"varname" : "maxspeed"
								}

							}
, 							{
								"box" : 								{
									"fontname" : "Verdana",
									"fontsize" : 9.0,
									"id" : "obj-64",
									"maxclass" : "newobj",
									"numinlets" : 1,
									"numoutlets" : 4,
									"outlettype" : [ "", "", "", "" ],
									"patching_rect" : [ 490.0, 40.0, 97.0, 17.0 ],
									"text" : "j.remote neighbors",
									"varname" : "neighbors"
								}

							}
, 							{
								"box" : 								{
									"fontname" : "Verdana",
									"fontsize" : 10.0,
									"frgb" : 0.0,
									"id" : "obj-70",
									"maxclass" : "comment",
									"numinlets" : 1,
									"numoutlets" : 0,
									"patching_rect" : [ 47.0, 265.0, 183.0, 19.0 ],
									"presentation" : 1,
									"presentation_rect" : [ 39.0, 290.0, 183.0, 19.0 ],
									"text" : "preferred distance from neighbors"
								}

							}
, 							{
								"box" : 								{
									"fontname" : "Verdana",
									"fontsize" : 10.0,
									"frgb" : 0.0,
									"id" : "obj-71",
									"maxclass" : "comment",
									"numinlets" : 1,
									"numoutlets" : 0,
									"patching_rect" : [ 47.0, 248.0, 117.0, 19.0 ],
									"presentation" : 1,
									"presentation_rect" : [ 39.0, 270.0, 117.0, 19.0 ],
									"text" : "speed of acceleration"
								}

							}
, 							{
								"box" : 								{
									"fontname" : "Verdana",
									"fontsize" : 10.0,
									"frgb" : 0.0,
									"id" : "obj-72",
									"maxclass" : "comment",
									"numinlets" : 1,
									"numoutlets" : 0,
									"patching_rect" : [ 47.0, 230.0, 218.0, 19.0 ],
									"presentation" : 1,
									"presentation_rect" : [ 39.0, 249.0, 218.0, 19.0 ],
									"text" : "willingness to change speed and direction"
								}

							}
, 							{
								"box" : 								{
									"fontname" : "Verdana",
									"fontsize" : 10.0,
									"frgb" : 0.0,
									"id" : "obj-73",
									"maxclass" : "comment",
									"numinlets" : 1,
									"numoutlets" : 0,
									"patching_rect" : [ 47.0, 213.0, 77.0, 19.0 ],
									"presentation" : 1,
									"presentation_rect" : [ 39.0, 229.0, 77.0, 19.0 ],
									"text" : "overall speed"
								}

							}
, 							{
								"box" : 								{
									"fontname" : "Verdana",
									"fontsize" : 10.0,
									"frgb" : 0.0,
									"id" : "obj-74",
									"maxclass" : "comment",
									"numinlets" : 1,
									"numoutlets" : 0,
									"patching_rect" : [ 47.0, 197.0, 217.0, 19.0 ],
									"presentation" : 1,
									"presentation_rect" : [ 39.0, 207.0, 217.0, 19.0 ],
									"text" : "distance of vision for avoiding wall edges"
								}

							}
, 							{
								"box" : 								{
									"fontname" : "Verdana",
									"fontsize" : 10.0,
									"frgb" : 0.0,
									"id" : "obj-75",
									"maxclass" : "comment",
									"numinlets" : 1,
									"numoutlets" : 0,
									"patching_rect" : [ 47.0, 180.0, 180.0, 19.0 ],
									"presentation" : 1,
									"presentation_rect" : [ 39.0, 187.0, 180.0, 19.0 ],
									"text" : "strengh of wall avoidance instinct"
								}

							}
, 							{
								"box" : 								{
									"fontname" : "Verdana",
									"fontsize" : 10.0,
									"frgb" : 0.0,
									"id" : "obj-76",
									"maxclass" : "comment",
									"numinlets" : 1,
									"numoutlets" : 0,
									"patching_rect" : [ 47.0, 162.0, 205.0, 19.0 ],
									"presentation" : 1,
									"presentation_rect" : [ 39.0, 166.0, 205.0, 19.0 ],
									"text" : "strength of neighbor avoidance instinct"
								}

							}
, 							{
								"box" : 								{
									"fontname" : "Verdana",
									"fontsize" : 10.0,
									"frgb" : 0.0,
									"id" : "obj-77",
									"maxclass" : "comment",
									"numinlets" : 1,
									"numoutlets" : 0,
									"patching_rect" : [ 47.0, 142.0, 235.0, 19.0 ],
									"presentation" : 1,
									"presentation_rect" : [ 39.0, 143.0, 235.0, 19.0 ],
									"text" : "strength of neighbor speed matching instinct"
								}

							}
, 							{
								"box" : 								{
									"fontname" : "Verdana",
									"fontsize" : 9.0,
									"hidden" : 1,
									"id" : "obj-78",
									"maxclass" : "newobj",
									"numinlets" : 1,
									"numoutlets" : 1,
									"outlettype" : [ "" ],
									"patching_rect" : [ 30.0, 623.0, 118.0, 17.0 ],
									"text" : "loadmess patcher Boids"
								}

							}
, 							{
								"box" : 								{
									"annotation" : "preferred distance from neighbors",
									"fontname" : "Verdana",
									"fontsize" : 10.0,
									"id" : "obj-8",
									"maxclass" : "flonum",
									"minimum" : 0.0,
									"numinlets" : 1,
									"numoutlets" : 2,
									"outlettype" : [ "float", "bang" ],
									"parameter_enable" : 0,
									"patching_rect" : [ 448.0, 476.0, 30.0, 19.0 ],
									"presentation" : 1,
									"presentation_rect" : [ 8.0, 290.0, 30.0, 19.0 ],
									"triangle" : 0,
									"triscale" : 0.9,
									"varname" : "Prefdist"
								}

							}
, 							{
								"box" : 								{
									"fontname" : "Verdana",
									"fontsize" : 9.0,
									"hidden" : 1,
									"id" : "obj-82",
									"maxclass" : "newobj",
									"numinlets" : 1,
									"numoutlets" : 2,
									"outlettype" : [ "", "" ],
									"patching_rect" : [ 30.0, 643.0, 61.0, 17.0 ],
									"save" : [ "#N", "thispatcher", ";", "#Q", "end", ";" ],
									"text" : "thispatcher"
								}

							}
, 							{
								"box" : 								{
									"fontname" : "Verdana",
									"fontsize" : 9.0,
									"hidden" : 1,
									"id" : "obj-83",
									"maxclass" : "message",
									"numinlets" : 2,
									"numoutlets" : 1,
									"outlettype" : [ "" ],
									"patching_rect" : [ 219.247177, 388.0, 214.0, 15.0 ],
									"text" : "window size 100 100 400 615, window exec"
								}

							}
, 							{
								"box" : 								{
									"fontname" : "Verdana",
									"fontsize" : 9.0,
									"hidden" : 1,
									"id" : "obj-84",
									"maxclass" : "newobj",
									"numinlets" : 1,
									"numoutlets" : 2,
									"outlettype" : [ "", "" ],
									"patching_rect" : [ 207.0, 499.0, 59.0, 17.0 ],
									"save" : [ "#N", "thispatcher", ";", "#Q", "window", "flags", "nogrow", "close", "zoom", "nofloat", "menu", "minimize", ";", "#Q", "window", "constrain", 50, 50, 32768, 32768, ";", "#Q", "window", "size", 100, 100, 400, 547, ";", "#Q", "window", "title", ";", "#Q", "window", "exec", ";", "#Q", "savewindow", 1, ";", "#Q", "end", ";" ],
									"text" : "thispatcher"
								}

							}
, 							{
								"box" : 								{
									"fontname" : "Verdana",
									"fontsize" : 9.0,
									"hidden" : 1,
									"id" : "obj-86",
									"maxclass" : "message",
									"numinlets" : 2,
									"numoutlets" : 1,
									"outlettype" : [ "" ],
									"patching_rect" : [ 128.247177, 352.0, 239.0, 15.0 ],
									"text" : "window flags nogrow, savewindow 1, window exec"
								}

							}
, 							{
								"box" : 								{
									"fontname" : "Verdana",
									"fontsize" : 9.0,
									"hidden" : 1,
									"id" : "obj-87",
									"maxclass" : "message",
									"numinlets" : 2,
									"numoutlets" : 1,
									"outlettype" : [ "" ],
									"patching_rect" : [ 162.519897, 331.181824, 158.0, 15.0 ],
									"text" : "window flags grow, window exec"
								}

							}
, 							{
								"box" : 								{
									"fontname" : "Verdana",
									"fontsize" : 18.0,
									"frgb" : 0.0,
									"id" : "obj-89",
									"maxclass" : "comment",
									"numinlets" : 1,
									"numoutlets" : 0,
									"patching_rect" : [ 63.0, 9.0, 211.0, 28.0 ],
									"presentation" : 1,
									"presentation_rect" : [ 55.0, -2.0, 211.0, 28.0 ],
									"text" : "extended settings",
									"underline" : 1
								}

							}
, 							{
								"box" : 								{
									"annotation" : "speed of acceleration",
									"fontname" : "Verdana",
									"fontsize" : 10.0,
									"id" : "obj-9",
									"maxclass" : "flonum",
									"minimum" : 0.0,
									"numinlets" : 1,
									"numoutlets" : 2,
									"outlettype" : [ "float", "bang" ],
									"parameter_enable" : 0,
									"patching_rect" : [ 444.0, 443.0, 30.0, 19.0 ],
									"presentation" : 1,
									"presentation_rect" : [ 8.0, 270.0, 30.0, 19.0 ],
									"triangle" : 0,
									"triscale" : 0.9,
									"varname" : "Accel"
								}

							}
, 							{
								"box" : 								{
									"bgtransparent" : 1,
									"border" : 0,
									"enablesprites" : 1,
									"id" : "obj-21",
									"local" : 0,
									"maxclass" : "lcd",
									"numinlets" : 1,
									"numoutlets" : 4,
									"outlettype" : [ "list", "list", "int", "" ],
									"patching_rect" : [ 79.990982, 285.49057, 139.256195, 139.256195 ],
									"presentation" : 1,
									"presentation_rect" : [ 31.245689, 311.891022, 129.328308, 126.601051 ]
								}

							}
, 							{
								"box" : 								{
									"background" : 1,
									"id" : "obj-19",
									"maxclass" : "panel",
									"numinlets" : 1,
									"numoutlets" : 0,
									"patching_rect" : [ 5.0, -5.0, 349.0, 429.0 ],
									"presentation" : 1,
									"presentation_rect" : [ -1.071896, -6.181818, 324.0, 453.0 ]
								}

							}
 ],
						"lines" : [ 							{
								"patchline" : 								{
									"destination" : [ "obj-60", 0 ],
									"disabled" : 0,
									"hidden" : 0,
									"source" : [ "obj-1", 0 ]
								}

							}
, 							{
								"patchline" : 								{
									"destination" : [ "obj-39", 0 ],
									"disabled" : 0,
									"hidden" : 0,
									"source" : [ "obj-10", 0 ]
								}

							}
, 							{
								"patchline" : 								{
									"destination" : [ "obj-41", 0 ],
									"disabled" : 0,
									"hidden" : 0,
									"source" : [ "obj-11", 0 ]
								}

							}
, 							{
								"patchline" : 								{
									"destination" : [ "obj-43", 0 ],
									"disabled" : 0,
									"hidden" : 0,
									"source" : [ "obj-12", 0 ]
								}

							}
, 							{
								"patchline" : 								{
									"destination" : [ "obj-45", 0 ],
									"disabled" : 0,
									"hidden" : 0,
									"source" : [ "obj-13", 0 ]
								}

							}
, 							{
								"patchline" : 								{
									"destination" : [ "obj-47", 0 ],
									"disabled" : 0,
									"hidden" : 0,
									"source" : [ "obj-14", 0 ]
								}

							}
, 							{
								"patchline" : 								{
									"destination" : [ "obj-54", 0 ],
									"disabled" : 0,
									"hidden" : 0,
									"source" : [ "obj-15", 0 ]
								}

							}
, 							{
								"patchline" : 								{
									"destination" : [ "obj-56", 0 ],
									"disabled" : 0,
									"hidden" : 0,
									"source" : [ "obj-16", 0 ]
								}

							}
, 							{
								"patchline" : 								{
									"destination" : [ "obj-64", 0 ],
									"disabled" : 0,
									"hidden" : 0,
									"source" : [ "obj-17", 0 ]
								}

							}
, 							{
								"patchline" : 								{
									"destination" : [ "obj-58", 0 ],
									"disabled" : 0,
									"hidden" : 0,
									"source" : [ "obj-18", 0 ]
								}

							}
, 							{
								"patchline" : 								{
									"destination" : [ "obj-62", 0 ],
									"disabled" : 0,
									"hidden" : 0,
									"source" : [ "obj-2", 0 ]
								}

							}
, 							{
								"patchline" : 								{
									"destination" : [ "obj-21", 0 ],
									"disabled" : 0,
									"hidden" : 1,
									"source" : [ "obj-20", 0 ]
								}

							}
, 							{
								"patchline" : 								{
									"destination" : [ "obj-30", 5 ],
									"disabled" : 0,
									"hidden" : 0,
									"source" : [ "obj-22", 0 ]
								}

							}
, 							{
								"patchline" : 								{
									"destination" : [ "obj-30", 4 ],
									"disabled" : 0,
									"hidden" : 0,
									"source" : [ "obj-23", 0 ]
								}

							}
, 							{
								"patchline" : 								{
									"destination" : [ "obj-30", 3 ],
									"disabled" : 0,
									"hidden" : 0,
									"source" : [ "obj-24", 0 ]
								}

							}
, 							{
								"patchline" : 								{
									"destination" : [ "obj-30", 2 ],
									"disabled" : 0,
									"hidden" : 0,
									"source" : [ "obj-25", 0 ]
								}

							}
, 							{
								"patchline" : 								{
									"destination" : [ "obj-30", 1 ],
									"disabled" : 0,
									"hidden" : 0,
									"source" : [ "obj-26", 0 ]
								}

							}
, 							{
								"patchline" : 								{
									"destination" : [ "obj-22", 0 ],
									"disabled" : 0,
									"hidden" : 0,
									"source" : [ "obj-30", 5 ]
								}

							}
, 							{
								"patchline" : 								{
									"destination" : [ "obj-23", 0 ],
									"disabled" : 0,
									"hidden" : 0,
									"source" : [ "obj-30", 4 ]
								}

							}
, 							{
								"patchline" : 								{
									"destination" : [ "obj-24", 0 ],
									"disabled" : 0,
									"hidden" : 0,
									"source" : [ "obj-30", 3 ]
								}

							}
, 							{
								"patchline" : 								{
									"destination" : [ "obj-25", 0 ],
									"disabled" : 0,
									"hidden" : 0,
									"source" : [ "obj-30", 2 ]
								}

							}
, 							{
								"patchline" : 								{
									"destination" : [ "obj-26", 0 ],
									"disabled" : 0,
									"hidden" : 0,
									"source" : [ "obj-30", 1 ]
								}

							}
, 							{
								"patchline" : 								{
									"destination" : [ "obj-31", 0 ],
									"disabled" : 0,
									"hidden" : 1,
									"source" : [ "obj-30", 10 ]
								}

							}
, 							{
								"patchline" : 								{
									"destination" : [ "obj-32", 0 ],
									"disabled" : 0,
									"hidden" : 0,
									"source" : [ "obj-30", 0 ]
								}

							}
, 							{
								"patchline" : 								{
									"destination" : [ "obj-30", 10 ],
									"disabled" : 0,
									"hidden" : 1,
									"source" : [ "obj-31", 0 ]
								}

							}
, 							{
								"patchline" : 								{
									"destination" : [ "obj-30", 0 ],
									"disabled" : 0,
									"hidden" : 0,
									"source" : [ "obj-32", 0 ]
								}

							}
, 							{
								"patchline" : 								{
									"destination" : [ "obj-8", 0 ],
									"disabled" : 0,
									"hidden" : 0,
									"source" : [ "obj-35", 0 ]
								}

							}
, 							{
								"patchline" : 								{
									"destination" : [ "obj-9", 0 ],
									"disabled" : 0,
									"hidden" : 0,
									"source" : [ "obj-37", 0 ]
								}

							}
, 							{
								"patchline" : 								{
									"destination" : [ "obj-10", 0 ],
									"disabled" : 0,
									"hidden" : 0,
									"source" : [ "obj-39", 0 ]
								}

							}
, 							{
								"patchline" : 								{
									"destination" : [ "obj-11", 0 ],
									"disabled" : 0,
									"hidden" : 0,
									"source" : [ "obj-41", 0 ]
								}

							}
, 							{
								"patchline" : 								{
									"destination" : [ "obj-12", 0 ],
									"disabled" : 0,
									"hidden" : 0,
									"source" : [ "obj-43", 0 ]
								}

							}
, 							{
								"patchline" : 								{
									"destination" : [ "obj-13", 0 ],
									"disabled" : 0,
									"hidden" : 0,
									"source" : [ "obj-45", 0 ]
								}

							}
, 							{
								"patchline" : 								{
									"destination" : [ "obj-14", 0 ],
									"disabled" : 0,
									"hidden" : 0,
									"source" : [ "obj-47", 0 ]
								}

							}
, 							{
								"patchline" : 								{
									"destination" : [ "obj-15", 0 ],
									"disabled" : 0,
									"hidden" : 0,
									"source" : [ "obj-54", 0 ]
								}

							}
, 							{
								"patchline" : 								{
									"destination" : [ "obj-16", 0 ],
									"disabled" : 0,
									"hidden" : 0,
									"source" : [ "obj-56", 0 ]
								}

							}
, 							{
								"patchline" : 								{
									"destination" : [ "obj-18", 0 ],
									"disabled" : 0,
									"hidden" : 0,
									"source" : [ "obj-58", 0 ]
								}

							}
, 							{
								"patchline" : 								{
									"destination" : [ "obj-1", 0 ],
									"disabled" : 0,
									"hidden" : 0,
									"source" : [ "obj-60", 0 ]
								}

							}
, 							{
								"patchline" : 								{
									"destination" : [ "obj-2", 0 ],
									"disabled" : 0,
									"hidden" : 0,
									"source" : [ "obj-62", 0 ]
								}

							}
, 							{
								"patchline" : 								{
									"destination" : [ "obj-17", 0 ],
									"disabled" : 0,
									"hidden" : 0,
									"source" : [ "obj-64", 0 ]
								}

							}
, 							{
								"patchline" : 								{
									"destination" : [ "obj-82", 0 ],
									"disabled" : 0,
									"hidden" : 0,
									"source" : [ "obj-78", 0 ]
								}

							}
, 							{
								"patchline" : 								{
									"destination" : [ "obj-35", 0 ],
									"disabled" : 0,
									"hidden" : 0,
									"source" : [ "obj-8", 0 ]
								}

							}
, 							{
								"patchline" : 								{
									"destination" : [ "obj-84", 0 ],
									"disabled" : 0,
									"hidden" : 1,
									"source" : [ "obj-83", 0 ]
								}

							}
, 							{
								"patchline" : 								{
									"destination" : [ "obj-84", 0 ],
									"disabled" : 0,
									"hidden" : 1,
									"source" : [ "obj-86", 0 ]
								}

							}
, 							{
								"patchline" : 								{
									"destination" : [ "obj-84", 0 ],
									"disabled" : 0,
									"hidden" : 1,
									"source" : [ "obj-87", 0 ]
								}

							}
, 							{
								"patchline" : 								{
									"destination" : [ "obj-37", 0 ],
									"disabled" : 0,
									"hidden" : 0,
									"source" : [ "obj-9", 0 ]
								}

							}
 ]
					}
,
					"patching_rect" : [ 205.0, 284.0, 90.0, 19.0 ],
					"saved_object_attributes" : 					{
						"default_fontface" : 0,
						"default_fontname" : "Arial",
						"default_fontsize" : 12.0,
						"description" : "",
						"digest" : "",
						"fontface" : 0,
						"fontname" : "Arial",
						"fontsize" : 12.0,
						"globalpatchername" : "",
						"tags" : ""
					}
,
					"text" : "p more-settings"
				}

			}
, 			{
				"box" : 				{
					"comment" : "",
					"id" : "obj-16",
					"maxclass" : "outlet",
					"numinlets" : 1,
					"numoutlets" : 0,
					"patching_rect" : [ 14.0, 163.0, 25.0, 25.0 ]
				}

			}
, 			{
				"box" : 				{
					"comment" : "",
					"id" : "obj-18",
					"maxclass" : "inlet",
					"numinlets" : 0,
					"numoutlets" : 1,
					"outlettype" : [ "" ],
					"patching_rect" : [ 14.0, 91.0, 25.0, 25.0 ]
				}

			}
, 			{
				"box" : 				{
					"fontname" : "Verdana",
					"fontsize" : 10.0,
					"id" : "obj-19",
					"maxclass" : "newobj",
					"numinlets" : 1,
					"numoutlets" : 2,
					"outlettype" : [ "", "" ],
					"patching_rect" : [ 14.0, 127.0, 61.0, 19.0 ],
					"text" : "j.view",
					"varname" : "j.model"
				}

			}
, 			{
				"box" : 				{
					"annotation" : "Current position of the point of attraction: z-coordinate",
					"fontname" : "Verdana",
					"fontsize" : 10.0,
					"id" : "obj-1",
					"maxclass" : "flonum",
					"numinlets" : 1,
					"numoutlets" : 2,
					"outlettype" : [ "float", "bang" ],
					"parameter_enable" : 0,
					"patching_rect" : [ 652.0, 268.0, 50.0, 19.0 ],
					"presentation" : 1,
					"presentation_rect" : [ 268.0, 45.0, 28.0, 19.0 ],
					"triangle" : 0
				}

			}
, 			{
				"box" : 				{
					"fontname" : "Verdana",
					"fontsize" : 9.0,
					"hidden" : 1,
					"id" : "obj-10",
					"maxclass" : "newobj",
					"numinlets" : 1,
					"numoutlets" : 4,
					"outlettype" : [ "", "", "", "" ],
					"patching_rect" : [ 521.0, 195.0, 78.0, 17.0 ],
					"text" : "j.remote mode",
					"varname" : "mode"
				}

			}
, 			{
				"box" : 				{
					"annotation" : "Turn boids on/off",
					"arrow" : 0,
					"fontname" : "Verdana",
					"fontsize" : 10.0,
					"id" : "obj-11",
					"items" : [ "new(xyz)", ",", "new(xyz)/old(xyz)", ",", "new(xyz)/old(xyz)/speed/azi/ele" ],
					"maxclass" : "umenu",
					"numinlets" : 1,
					"numoutlets" : 3,
					"outlettype" : [ "int", "", "" ],
					"parameter_enable" : 0,
					"patching_rect" : [ 430.0, 194.0, 80.0, 19.0 ],
					"presentation" : 1,
					"presentation_rect" : [ 125.0, 22.0, 81.0, 19.0 ]
				}

			}
, 			{
				"box" : 				{
					"fontname" : "Verdana",
					"fontsize" : 10.0,
					"frgb" : 0.0,
					"id" : "obj-17",
					"maxclass" : "comment",
					"numinlets" : 1,
					"numoutlets" : 0,
					"patching_rect" : [ 173.0, 30.0, 77.0, 19.0 ],
					"presentation" : 1,
					"presentation_rect" : [ 214.0, 23.0, 77.0, 19.0 ],
					"text" : "Center X/Y/Z"
				}

			}
, 			{
				"box" : 				{
					"annotation" : "Current position of the point of attraction: y-coordinate",
					"fontname" : "Verdana",
					"fontsize" : 10.0,
					"id" : "obj-2",
					"maxclass" : "flonum",
					"numinlets" : 1,
					"numoutlets" : 2,
					"outlettype" : [ "float", "bang" ],
					"parameter_enable" : 0,
					"patching_rect" : [ 602.0, 268.0, 50.0, 19.0 ],
					"presentation" : 1,
					"presentation_rect" : [ 239.0, 45.0, 28.0, 19.0 ],
					"triangle" : 0
				}

			}
, 			{
				"box" : 				{
					"fontname" : "Verdana",
					"fontsize" : 9.0,
					"hidden" : 1,
					"id" : "obj-21",
					"maxclass" : "newobj",
					"numinlets" : 1,
					"numoutlets" : 4,
					"outlettype" : [ "", "", "", "" ],
					"patching_rect" : [ 560.0, 31.0, 64.0, 17.0 ],
					"text" : "j.remote on",
					"varname" : "on"
				}

			}
, 			{
				"box" : 				{
					"fontname" : "Verdana",
					"fontsize" : 10.0,
					"frgb" : 0.0,
					"id" : "obj-25",
					"maxclass" : "comment",
					"numinlets" : 1,
					"numoutlets" : 0,
					"patching_rect" : [ 0.0, 42.0, 94.0, 19.0 ],
					"presentation" : 1,
					"presentation_rect" : [ 0.0, 42.0, 94.0, 19.0 ],
					"text" : "Update rate [Hz]"
				}

			}
, 			{
				"box" : 				{
					"annotation" : "updaterate of the flock",
					"fontname" : "Verdana",
					"fontsize" : 10.0,
					"id" : "obj-28",
					"maxclass" : "number",
					"numinlets" : 1,
					"numoutlets" : 2,
					"outlettype" : [ "int", "bang" ],
					"parameter_enable" : 0,
					"patching_rect" : [ 448.0, 59.0, 50.0, 19.0 ],
					"presentation" : 1,
					"presentation_rect" : [ 93.0, 42.0, 29.0, 19.0 ],
					"triangle" : 0
				}

			}
, 			{
				"box" : 				{
					"annotation" : "Current position of the point of attraction: x-coordinate",
					"fontname" : "Verdana",
					"fontsize" : 10.0,
					"id" : "obj-3",
					"maxclass" : "flonum",
					"numinlets" : 1,
					"numoutlets" : 2,
					"outlettype" : [ "float", "bang" ],
					"parameter_enable" : 0,
					"patching_rect" : [ 552.0, 268.0, 50.0, 19.0 ],
					"presentation" : 1,
					"presentation_rect" : [ 210.0, 45.0, 28.0, 19.0 ],
					"triangle" : 0
				}

			}
, 			{
				"box" : 				{
					"fontname" : "Verdana",
					"fontsize" : 9.0,
					"hidden" : 1,
					"id" : "obj-30",
					"maxclass" : "newobj",
					"numinlets" : 1,
					"numoutlets" : 4,
					"outlettype" : [ "", "", "", "" ],
					"patching_rect" : [ 509.0, 60.0, 102.0, 17.0 ],
					"text" : "j.remote updaterate",
					"varname" : "updaterate"
				}

			}
, 			{
				"box" : 				{
					"fontname" : "Verdana",
					"fontsize" : 10.0,
					"frgb" : 0.0,
					"id" : "obj-34",
					"maxclass" : "comment",
					"numinlets" : 1,
					"numoutlets" : 0,
					"patching_rect" : [ 0.0, 22.0, 92.0, 19.0 ],
					"presentation" : 1,
					"presentation_rect" : [ 0.0, 22.0, 92.0, 19.0 ],
					"text" : "Number of boids"
				}

			}
, 			{
				"box" : 				{
					"fontname" : "Verdana",
					"fontsize" : 9.0,
					"hidden" : 1,
					"id" : "obj-4",
					"maxclass" : "newobj",
					"numinlets" : 1,
					"numoutlets" : 4,
					"outlettype" : [ "", "", "", "" ],
					"patching_rect" : [ 717.0, 237.0, 105.0, 17.0 ],
					"text" : "j.remote attractpoint",
					"varname" : "attractpoint/xyz[1]"
				}

			}
, 			{
				"box" : 				{
					"fontname" : "Verdana",
					"fontsize" : 9.0,
					"hidden" : 1,
					"id" : "obj-40",
					"maxclass" : "newobj",
					"numinlets" : 1,
					"numoutlets" : 4,
					"outlettype" : [ "", "", "", "" ],
					"patching_rect" : [ 503.0, 87.0, 87.0, 17.0 ],
					"text" : "j.remote number",
					"varname" : "number"
				}

			}
, 			{
				"box" : 				{
					"annotation" : "Turn boids on/off",
					"fontname" : "Verdana",
					"fontsize" : 10.0,
					"id" : "obj-46",
					"maxclass" : "textbutton",
					"mode" : 1,
					"numinlets" : 1,
					"numoutlets" : 3,
					"outlettype" : [ "", "", "int" ],
					"parameter_enable" : 0,
					"patching_rect" : [ 437.0, 28.0, 100.0, 20.0 ],
					"presentation" : 1,
					"presentation_rect" : [ 125.0, 42.0, 25.0, 20.0 ],
					"rounded" : 8.0,
					"text" : "Off",
					"texton" : "On"
				}

			}
, 			{
				"box" : 				{
					"annotation" : "reset boids randomly inside the flyrect",
					"fontname" : "Verdana",
					"fontsize" : 10.0,
					"id" : "obj-47",
					"maxclass" : "textbutton",
					"numinlets" : 1,
					"numoutlets" : 3,
					"outlettype" : [ "", "", "int" ],
					"parameter_enable" : 0,
					"patching_rect" : [ 442.0, 132.0, 100.0, 20.0 ],
					"presentation" : 1,
					"presentation_rect" : [ 151.0, 42.0, 55.0, 20.0 ],
					"rounded" : 8.0,
					"text" : "random",
					"texton" : "On"
				}

			}
, 			{
				"box" : 				{
					"fontname" : "Verdana",
					"fontsize" : 9.0,
					"hidden" : 1,
					"id" : "obj-5",
					"maxclass" : "newobj",
					"numinlets" : 1,
					"numoutlets" : 4,
					"outlettype" : [ "", "", "", "" ],
					"patching_rect" : [ 457.0, 170.0, 84.0, 17.0 ],
					"text" : "j.remote update",
					"varname" : "jcom.parameter[1]"
				}

			}
, 			{
				"box" : 				{
					"annotation" : "number of boids",
					"fontname" : "Verdana",
					"fontsize" : 10.0,
					"id" : "obj-53",
					"maxclass" : "number",
					"numinlets" : 1,
					"numoutlets" : 2,
					"outlettype" : [ "int", "bang" ],
					"parameter_enable" : 0,
					"patching_rect" : [ 445.0, 91.0, 50.0, 19.0 ],
					"presentation" : 1,
					"presentation_rect" : [ 93.0, 21.0, 29.0, 19.0 ],
					"triangle" : 0
				}

			}
, 			{
				"box" : 				{
					"fontname" : "Verdana",
					"fontsize" : 10.0,
					"id" : "obj-57",
					"maxclass" : "newobj",
					"numinlets" : 11,
					"numoutlets" : 11,
					"outlettype" : [ "", "", "", "", "", "", "", "", "", "", "" ],
					"patching_rect" : [ 557.0, 237.0, 154.0, 19.0 ],
					"text" : "jcom.list2parameter 3"
				}

			}
, 			{
				"box" : 				{
					"fontname" : "Verdana",
					"fontsize" : 9.0,
					"hidden" : 1,
					"id" : "obj-7",
					"maxclass" : "newobj",
					"numinlets" : 1,
					"numoutlets" : 4,
					"outlettype" : [ "", "", "", "" ],
					"patching_rect" : [ 561.0, 135.0, 87.0, 17.0 ],
					"text" : "j.remote random",
					"varname" : "jcom.parameter[3]"
				}

			}
, 			{
				"box" : 				{
					"background" : 1,
					"id" : "obj-20",
					"maxclass" : "j.ui",
					"numinlets" : 1,
					"numoutlets" : 1,
					"outlettype" : [ "" ],
					"presentation" : 1,
					"presentation_rect" : [ 0.0, 0.0, 300.0, 70.0 ],
					"text" : "/no_model_address"
				}

			}
 ],
		"lines" : [ 			{
				"patchline" : 				{
					"destination" : [ "obj-57", 2 ],
					"disabled" : 0,
					"hidden" : 0,
					"midpoints" : [ 661.5, 308.0, 539.0, 308.0, 539.0, 225.0, 593.5, 225.0 ],
					"source" : [ "obj-1", 0 ]
				}

			}
, 			{
				"patchline" : 				{
					"destination" : [ "obj-11", 0 ],
					"disabled" : 0,
					"hidden" : 0,
					"source" : [ "obj-10", 0 ]
				}

			}
, 			{
				"patchline" : 				{
					"destination" : [ "obj-10", 0 ],
					"disabled" : 0,
					"hidden" : 0,
					"source" : [ "obj-11", 0 ]
				}

			}
, 			{
				"patchline" : 				{
					"destination" : [ "obj-19", 0 ],
					"disabled" : 0,
					"hidden" : 0,
					"source" : [ "obj-18", 0 ]
				}

			}
, 			{
				"patchline" : 				{
					"destination" : [ "obj-16", 0 ],
					"disabled" : 0,
					"hidden" : 0,
					"source" : [ "obj-19", 0 ]
				}

			}
, 			{
				"patchline" : 				{
					"destination" : [ "obj-57", 1 ],
					"disabled" : 0,
					"hidden" : 0,
					"midpoints" : [ 611.5, 301.0, 544.0, 301.0, 544.0, 230.0, 580.0, 230.0 ],
					"source" : [ "obj-2", 0 ]
				}

			}
, 			{
				"patchline" : 				{
					"destination" : [ "obj-6", 0 ],
					"disabled" : 0,
					"hidden" : 0,
					"source" : [ "obj-20", 0 ]
				}

			}
, 			{
				"patchline" : 				{
					"destination" : [ "obj-46", 0 ],
					"disabled" : 0,
					"hidden" : 0,
					"source" : [ "obj-21", 0 ]
				}

			}
, 			{
				"patchline" : 				{
					"destination" : [ "obj-30", 0 ],
					"disabled" : 0,
					"hidden" : 0,
					"source" : [ "obj-28", 0 ]
				}

			}
, 			{
				"patchline" : 				{
					"destination" : [ "obj-57", 0 ],
					"disabled" : 0,
					"hidden" : 0,
					"midpoints" : [ 561.5, 296.0, 550.0, 296.0, 550.0, 234.0, 566.5, 234.0 ],
					"source" : [ "obj-3", 0 ]
				}

			}
, 			{
				"patchline" : 				{
					"destination" : [ "obj-28", 0 ],
					"disabled" : 0,
					"hidden" : 0,
					"source" : [ "obj-30", 0 ]
				}

			}
, 			{
				"patchline" : 				{
					"destination" : [ "obj-57", 10 ],
					"disabled" : 0,
					"hidden" : 0,
					"source" : [ "obj-4", 0 ]
				}

			}
, 			{
				"patchline" : 				{
					"destination" : [ "obj-53", 0 ],
					"disabled" : 0,
					"hidden" : 0,
					"source" : [ "obj-40", 0 ]
				}

			}
, 			{
				"patchline" : 				{
					"destination" : [ "obj-21", 0 ],
					"disabled" : 0,
					"hidden" : 0,
					"source" : [ "obj-46", 0 ]
				}

			}
, 			{
				"patchline" : 				{
					"destination" : [ "obj-7", 0 ],
					"disabled" : 0,
					"hidden" : 0,
					"source" : [ "obj-47", 0 ]
				}

			}
, 			{
				"patchline" : 				{
					"destination" : [ "obj-40", 0 ],
					"disabled" : 0,
					"hidden" : 0,
					"source" : [ "obj-53", 0 ]
				}

			}
, 			{
				"patchline" : 				{
					"destination" : [ "obj-1", 0 ],
					"disabled" : 0,
					"hidden" : 0,
					"source" : [ "obj-57", 2 ]
				}

			}
, 			{
				"patchline" : 				{
					"destination" : [ "obj-2", 0 ],
					"disabled" : 0,
					"hidden" : 0,
					"source" : [ "obj-57", 1 ]
				}

			}
, 			{
				"patchline" : 				{
					"destination" : [ "obj-3", 0 ],
					"disabled" : 0,
					"hidden" : 0,
					"source" : [ "obj-57", 0 ]
				}

			}
, 			{
				"patchline" : 				{
					"destination" : [ "obj-4", 0 ],
					"disabled" : 0,
					"hidden" : 0,
					"source" : [ "obj-57", 10 ]
				}

			}
 ],
		"dependency_cache" : [ 			{
				"name" : "jcom.list2parameter.maxpat",
				"bootpath" : "/Users/nilspeters/Documents/gits/JamomaUserLibraries/GMEA/Projects/CP.interface/patchers",
				"patcherrelativepath" : "../../../GMEA/Projects/CP.interface/patchers",
				"type" : "JSON",
				"implicit" : 1
			}
, 			{
				"name" : "j.ui.mxo",
				"type" : "iLaX"
			}
, 			{
				"name" : "j.remote.mxo",
				"type" : "iLaX"
			}
, 			{
				"name" : "j.view.mxo",
				"type" : "iLaX"
			}
 ]
	}

}
